<svg width="40" height="40" viewBox="0 0 40 40" fill="none" xmlns="http://www.w3.org/2000/svg">
<path d="M33.5288 24.5067L12.3997 3.37756C12.0853 3.06308 11.6505 2.89108 11.204 2.9073C10.7614 2.92279 10.3416 3.1227 10.0523 3.45568C7.30609 6.61783 5.87021 10.6722 6.00923 14.8718C6.14891 19.0919 7.87097 23.061 10.8582 26.0482C11.9099 27.0999 13.0837 27.994 14.347 28.7183C13.5994 29.0521 13.0769 29.8021 13.0769 30.6724C13.0769 31.2275 13.2895 31.7339 13.6375 32.1146C13.621 32.166 13.612 32.2207 13.612 32.2776V33.8838H10.9338C10.0503 33.8838 9.33135 34.6027 9.33135 35.4862V36.5582C9.33135 36.8532 9.57052 37.0924 9.86551 37.0924H20.567C20.862 37.0924 21.1012 36.8532 21.1012 36.5582V35.4862C21.1012 34.6027 20.3823 33.8838 19.4987 33.8838H16.8206V32.2776C16.8206 32.2207 16.8115 32.1659 16.795 32.1144C17.143 31.7338 17.3557 31.2275 17.3557 30.6723C17.3557 30.4486 17.321 30.2328 17.257 30.03C18.7826 30.5466 20.3893 30.8427 22.0346 30.8972C22.2206 30.9033 22.4063 30.9064 22.5917 30.9064C26.5917 30.9064 30.4287 29.4786 33.4507 26.8539C33.7837 26.5647 33.9835 26.145 33.9991 25.7023C34.0148 25.2569 33.8434 24.8211 33.5288 24.5067ZM15.2163 29.6013C15.8069 29.6013 16.2874 30.0818 16.2874 30.6724C16.2874 31.2631 15.8069 31.7435 15.2163 31.7435C14.6257 31.7435 14.1452 31.263 14.1452 30.6724C14.1452 30.0818 14.6257 29.6013 15.2163 29.6013ZM20.0329 35.4862V36.024H10.3997V35.4862C10.3997 35.1917 10.6393 34.952 10.9338 34.952H19.4987C19.7932 34.952 20.0329 35.1917 20.0329 35.4862ZM14.6803 33.8837V32.7437C14.8516 32.7881 15.0312 32.8117 15.2162 32.8117C15.4013 32.8117 15.5809 32.7881 15.7523 32.7437V33.8837H14.6803ZM32.7502 26.0474C29.9232 28.5027 26.3341 29.8383 22.5914 29.8381C22.4181 29.8381 22.2438 29.8352 22.0699 29.8294C18.1219 29.6987 14.4084 28.0876 11.6136 25.2928C8.81883 22.4981 7.20767 18.7845 7.07701 14.8365C6.94694 10.9071 8.29008 7.11413 10.859 4.15623C10.9561 4.04459 11.0919 3.98022 11.2417 3.97495C11.2484 3.97475 11.255 3.97462 11.2616 3.97462C11.4065 3.97462 11.5418 4.03037 11.6444 4.13299L32.7735 25.2621C32.8807 25.3693 32.9368 25.5124 32.9315 25.6648C32.9262 25.8145 32.8618 25.9505 32.7502 26.0474Z" fill="#440099"/>
<path d="M24.295 13.0787C24.4317 13.0787 24.5684 13.0266 24.6727 12.9223L29.6318 7.96321C29.9469 8.14616 30.3124 8.25146 30.7022 8.25146C31.8818 8.25146 32.8416 7.29171 32.8416 6.11209C32.8416 4.9324 31.8818 3.97266 30.7022 3.97266C29.5225 3.97266 28.5628 4.9324 28.5628 6.11209C28.5628 6.51518 28.675 6.8925 28.8695 7.21466L23.9174 12.1668C23.7087 12.3754 23.7087 12.7136 23.9174 12.9222C24.0216 13.0265 24.1583 13.0787 24.295 13.0787ZM30.7022 5.04097C31.2927 5.04097 31.7733 5.52145 31.7733 6.11209C31.7733 6.70274 31.2928 7.18314 30.7022 7.18314C30.1115 7.18314 29.6311 6.70267 29.6311 6.11209C29.6311 5.52151 30.1116 5.04097 30.7022 5.04097Z" fill="#440099"/>
</svg>
